<?xml version="1.0" standalone="no"?>
<!DOCTYPE svg PUBLIC "-//W3C//DTD SVG 20010904//EN"
 "http://www.w3.org/TR/2001/REC-SVG-20010904/DTD/svg10.dtd">
<svg version="1.0" xmlns="http://www.w3.org/2000/svg"
 width="1120.000000pt" height="1120.000000pt" viewBox="0 0 1120.000000 1120.000000"
 preserveAspectRatio="xMidYMid meet">
<metadata>
Created by potrace 1.14, written by Peter Selinger 2001-2017
</metadata>
<g transform="translate(0.000000,1120.000000) scale(0.100000,-0.100000)"
fill="#000000" stroke="none">
<path d="M1758 9410 c-3 -17 -1 -33 3 -36 5 -2 4 -16 -1 -29 -6 -15 -6 -27 0
-30 5 -3 7 -11 5 -18 -8 -20 -11 -117 -5 -117 4 0 4 -22 0 -50 -4 -27 -3 -50
2 -50 4 0 4 -11 -1 -23 -5 -13 -5 -30 -1 -37 5 -8 5 -21 1 -29 -9 -16 -7 -49
3 -58 3 -3 1 -14 -4 -24 -6 -11 -6 -20 -1 -24 6 -3 6 -17 1 -35 -5 -17 -5 -30
0 -30 5 0 5 -13 0 -30 -5 -17 -5 -30 0 -30 5 0 5 -13 0 -30 -5 -16 -5 -30 0
-30 4 0 6 -8 4 -17 -7 -30 -9 -153 -3 -153 4 0 3 -17 -1 -38 -4 -21 -3 -48 1
-60 5 -12 4 -24 -1 -27 -6 -3 -6 -15 0 -30 5 -14 6 -25 2 -25 -4 0 -7 -29 -7
-65 0 -36 3 -65 6 -65 3 0 3 -22 -1 -50 -4 -27 -3 -50 2 -50 4 0 4 -11 -1 -23
-5 -13 -5 -30 -1 -37 5 -8 6 -18 3 -23 -7 -12 -9 -147 -2 -147 4 0 3 -17 -1
-38 -4 -21 -3 -48 1 -60 5 -12 4 -24 -1 -27 -6 -3 -6 -15 0 -30 5 -14 6 -25 2
-25 -4 0 -7 -29 -7 -65 0 -36 3 -65 6 -65 3 0 3 -22 -1 -50 -4 -27 -3 -50 2
-50 4 0 4 -11 -1 -23 -5 -13 -5 -30 -1 -37 5 -8 6 -18 3 -23 -8 -13 -9 -97 -1
-97 4 0 3 -13 -2 -30 -5 -16 -6 -30 -2 -30 6 0 7 -64 2 -80 -1 -3 -1 -21 -1
-40 2 -41 1 -109 -2 -162 -1 -21 0 -38 3 -38 4 0 4 -67 0 -80 -5 -13 -2 -71 3
-76 3 -4 2 -16 -3 -28 -4 -13 -4 -29 0 -36 5 -8 4 -22 -1 -31 -5 -11 -5 -20 0
-24 6 -3 6 -17 1 -35 -5 -17 -5 -30 0 -30 5 0 5 -13 0 -30 -5 -17 -5 -30 0
-30 5 0 5 -13 0 -30 -5 -16 -5 -30 0 -30 4 0 6 -8 4 -17 -7 -30 -9 -153 -3
-153 4 0 3 -17 -1 -38 -4 -21 -3 -48 1 -60 5 -12 4 -24 -1 -27 -6 -3 -6 -15 0
-30 5 -14 6 -25 2 -25 -4 0 -7 -29 -7 -65 0 -36 3 -65 6 -65 3 0 3 -22 -1 -50
-4 -27 -3 -50 2 -50 4 0 4 -11 -1 -23 -5 -13 -5 -30 -1 -37 5 -8 5 -21 1 -29
-9 -16 -7 -49 3 -58 3 -3 1 -14 -4 -24 -6 -11 -6 -20 -1 -24 6 -3 6 -17 1 -35
-5 -17 -5 -30 0 -30 5 0 5 -13 0 -30 -5 -17 -5 -30 0 -30 5 0 5 -13 0 -30 -5
-16 -5 -30 -1 -30 4 0 4 -25 1 -56 -3 -30 -3 -57 1 -60 5 -3 6 -11 2 -19 -4
-12 9 -15 78 -15 240 -2 332 0 337 5 3 3 6 830 6 1838 l1 1832 3511 1 3511 2
-1 -677 -1 -676 -351 -3 -351 -2 -28 -58 c-15 -31 -48 -100 -72 -152 -24 -52
-48 -102 -53 -110 -6 -8 -13 -22 -16 -30 -3 -8 -30 -66 -60 -128 -30 -62 -54
-117 -54 -122 0 -6 -5 -10 -12 -10 -6 0 -9 -3 -6 -6 4 -3 -9 -36 -27 -72 -18
-37 -74 -152 -125 -257 -51 -104 -119 -244 -151 -310 -33 -66 -59 -126 -59
-132 0 -7 -4 -13 -9 -13 -9 0 -35 -58 -32 -72 0 -5 -4 -8 -9 -8 -6 0 -10 -4
-10 -9 0 -23 -665 -1359 -834 -1676 -9 -16 -16 -36 -16 -43 0 -36 -36 2 -78
83 -26 50 -50 92 -54 93 -5 2 -8 9 -8 14 0 6 -41 88 -92 182 -115 214 -131
245 -203 381 -33 61 -76 142 -96 180 -21 39 -48 90 -61 115 -95 180 -156 294
-187 350 -20 36 -45 84 -55 108 -11 23 -23 42 -28 42 -4 0 -8 7 -8 15 0 9 -10
32 -23 53 -13 20 -34 60 -47 87 -13 28 -26 52 -29 55 -3 3 -16 25 -29 50 -70
136 -128 246 -132 250 -3 3 -17 30 -33 60 -15 30 -59 114 -97 185 -38 72 -82
155 -97 185 -16 30 -30 57 -33 60 -5 5 -13 19 -91 172 -30 56 -56 105 -59 108
-4 4 -39 70 -142 270 -13 25 -25 47 -28 50 -3 3 -11 17 -19 32 l-14 27 -258
-1 -258 0 11 -22 c6 -11 51 -94 99 -184 49 -89 89 -167 89 -172 0 -4 3 -10 8
-12 4 -1 14 -17 23 -34 40 -77 134 -252 152 -284 11 -19 35 -64 55 -100 19
-36 47 -87 62 -115 42 -75 83 -152 125 -230 78 -145 92 -172 125 -230 18 -33
37 -66 43 -72 5 -7 6 -13 2 -13 -5 0 -2 -8 6 -17 8 -10 21 -31 30 -48 9 -16
30 -55 46 -85 17 -30 63 -116 103 -190 40 -74 95 -174 121 -223 27 -48 49 -90
49 -95 0 -4 10 -23 23 -42 13 -19 52 -89 87 -155 34 -66 66 -124 70 -130 4 -5
29 -50 55 -100 27 -49 56 -105 67 -123 10 -18 43 -81 74 -140 31 -59 60 -111
64 -117 4 -5 24 -41 44 -80 57 -107 301 -557 401 -740 12 -22 39 -71 60 -110
51 -95 93 -171 123 -223 l25 -43 47 93 c134 266 206 403 213 406 4 2 7 10 7
18 0 13 18 52 30 64 3 3 18 32 34 65 16 33 34 63 40 67 6 4 8 8 5 8 -4 0 17
46 46 103 30 56 93 179 141 272 210 409 237 461 246 473 6 6 7 12 2 12 -5 0
-4 4 1 8 6 4 42 70 82 147 180 354 226 441 235 453 6 6 7 12 3 12 -4 0 -3 6 3
13 9 12 110 205 233 447 35 69 67 127 71 128 5 2 8 9 8 15 0 7 6 23 13 37 54
103 242 466 411 795 22 44 45 83 50 87 6 4 175 7 376 7 201 0 377 0 393 0 l27
1 0 1085 0 1085 -3934 0 -3934 0 -4 -30z"/>
<path d="M2540 7665 c0 -4 83 -167 202 -395 36 -69 103 -197 148 -285 45 -88
87 -166 92 -172 6 -7 7 -13 3 -13 -5 0 -1 -8 7 -17 8 -10 37 -61 63 -113 26
-52 76 -149 110 -215 35 -66 92 -176 126 -245 35 -69 66 -127 69 -130 3 -3 30
-54 61 -115 31 -60 91 -177 134 -260 43 -82 99 -192 126 -243 27 -51 52 -98
56 -105 4 -7 8 -18 9 -25 1 -7 7 -18 12 -25 6 -7 37 -64 70 -127 32 -63 90
-173 127 -245 37 -71 100 -193 140 -270 40 -77 103 -198 140 -270 37 -71 105
-202 151 -291 l83 -161 -1355 1 -1355 1 4 -23 c2 -12 0 -25 -4 -28 -5 -3 -5
-13 1 -23 5 -10 7 -20 5 -23 -7 -7 -11 -108 -5 -108 4 0 4 -22 0 -50 -4 -27
-3 -50 2 -50 4 0 4 -11 -1 -23 -5 -13 -5 -30 -1 -37 5 -8 5 -21 1 -29 -9 -16
-7 -49 3 -58 3 -3 1 -14 -4 -24 -6 -11 -6 -20 -1 -24 6 -3 6 -17 1 -35 -5 -17
-5 -30 0 -30 5 0 5 -13 0 -30 -5 -17 -5 -30 0 -30 5 0 5 -13 0 -30 -5 -16 -5
-30 0 -30 4 0 6 -8 4 -17 -7 -30 -9 -153 -3 -153 4 0 3 -17 -1 -38 -4 -21 -3
-48 1 -60 5 -12 4 -24 -1 -27 -6 -3 -6 -15 0 -30 5 -14 6 -25 2 -25 -4 0 -7
-29 -7 -65 0 -36 3 -65 6 -65 3 0 3 -22 -1 -50 -4 -27 -3 -50 2 -50 4 0 4 -11
-1 -23 -5 -13 -5 -30 -1 -37 5 -8 5 -21 1 -29 -9 -16 -7 -49 3 -58 3 -3 1 -14
-4 -24 -6 -11 -6 -20 -1 -24 6 -3 6 -17 1 -35 -5 -17 -5 -30 0 -30 5 0 5 -13
0 -30 -5 -17 -5 -30 0 -30 5 0 5 -13 0 -30 -5 -16 -5 -30 0 -30 4 0 4 -15 0
-34 -4 -19 -4 -40 1 -47 4 -7 3 -21 -2 -30 -5 -11 -5 -20 0 -24 6 -3 6 -17 1
-35 -5 -17 -5 -30 0 -30 5 0 5 -13 0 -30 -5 -17 -5 -30 0 -30 5 0 5 -13 0 -30
-5 -17 -5 -30 0 -30 4 0 6 -8 4 -17 -7 -30 -9 -153 -3 -153 3 0 4 -11 1 -25
l-4 -25 3936 0 3936 0 0 2050 0 2050 -47 1 c-172 2 -366 -1 -371 -5 -3 -3 -6
-833 -6 -1843 l-1 -1838 -3511 -1 -3511 -2 1 682 1 681 73 2 c40 0 79 3 86 6
8 3 16 3 19 0 5 -4 360 -7 383 -2 5 1 14 1 19 0 13 -3 209 -3 221 0 5 1 14 1
19 0 13 -3 209 -3 221 0 5 1 14 1 19 0 13 -3 209 -3 221 0 5 1 14 1 19 0 13
-3 209 -3 221 0 5 1 14 1 19 0 13 -3 209 -3 221 0 5 1 14 1 19 0 13 -3 209 -3
221 0 5 1 14 1 19 0 13 -3 209 -3 221 0 5 1 14 1 19 0 6 -2 60 -2 120 -2 93 1
112 4 123 18 7 10 50 92 95 183 45 91 85 167 90 168 4 2 7 8 7 14 0 5 7 25 16
43 15 33 15 33 -55 174 -39 77 -71 144 -70 147 0 4 -3 10 -8 13 -10 8 -213
415 -213 429 0 6 -3 12 -7 14 -10 4 -313 609 -313 625 0 6 -3 13 -7 15 -5 2
-226 440 -493 973 -266 534 -491 978 -500 989 -8 10 -14 21 -14 25 2 9 -129
274 -142 288 -7 8 -88 11 -272 11 -144 0 -262 -1 -262 -3z"/>
</g>
</svg>
